PathFileType	4	(X/Y/Z)	OpenSim_Sub07_EMGStiffKnee_Gyro.trc
DataRate	CameraRate	NumFrames	NumMarkers	Units	OrigDataRate	OrigDataStartFrame	OrigNumFrames
100	100	13	8	m	100	3695	7388
Frame#	Time	torso_imu_offset_imu	pelvis_imu_offset_imu	tibia_r_imu_offset_imu	femur_r_imu_offset_imu	tibia_l_imu_offset_imu	femur_l_imu_offset_imu	toes_r_imu_offset_imu	toes_l_imu_offset_imu
				X1	Y1	Z1	X2	Y2	Z2	X3	Y3	Z3	X4	Y4	Z4	X5	Y5	Z5	X6	Y6	Z6	X7	Y7	Z7	X8		Y8	Z8	

3695	36.94000000	-0.60840702	0.08812792	0.00365429	0.27971694	0.09599280	-0.34235961	-0.60414948	-0.16421726	-0.13163882	-0.88647302	0.50128888	-1.19492237	-0.83983782	-1.17729800	-2.37895562	0.41307075	0.30578423	-0.45111350	-0.02538172	-0.06503856	0.13700347	0.71891876	2.00656883	-1.57377056
3696	36.95000000	-0.59757214	0.12460867	0.01778650	0.26948119	0.10264678	-0.31565238	-0.56736555	-0.12263691	-0.16282933	-0.94094883	0.52026785	-1.10732660	-1.46502327	-1.19114792	-2.49329414	0.44785886	0.30924476	-0.48603730	-0.02957566	-0.04804327	0.12460905	0.58404475	1.84973038	-1.89448885
3697	36.96000000	-0.58592634	0.15334932	0.04087650	0.27203618	0.11778639	-0.29619834	-0.42392785	-0.09815199	-0.20237803	-0.87511359	0.50258733	-1.01441146	-1.79296278	-1.11488809	-2.57599945	0.49315672	0.28862129	-0.53999148	-0.03915761	-0.04914576	0.10012994	0.52803347	1.71715563	-2.05935392
3698	36.97000000	-0.56644647	0.18549045	0.06715614	0.27453390	0.13936938	-0.28085007	-0.39356468	-0.11838498	-0.21812502	-0.72435715	0.48321043	-0.93233594	-1.79923452	-0.98291513	-2.62870196	0.52567911	0.26276284	-0.60944421	-0.03605896	-0.05188483	0.06694714	0.43821532	1.68790639	-2.07447590
3699	36.98000000	-0.53904324	0.21203610	0.10033674	0.27595589	0.15927251	-0.26451573	-0.44827167	-0.14036225	-0.21028213	-0.55281945	0.48445567	-0.87846783	-1.62776652	-0.84729494	-2.67407916	0.58006251	0.23892400	-0.69413543	-0.02794831	-0.03798181	0.03808761	0.34105062	1.79713162	-2.00751040
3700	36.99000000	-0.50966306	0.23469579	0.12787505	0.28240486	0.17561580	-0.24509641	-0.45439605	-0.14242729	-0.21592187	-0.38264385	0.45744902	-0.82670031	-1.32762883	-0.75228450	-2.70546960	0.66658609	0.21377387	-0.78319646	-0.03227565	-0.03285134	0.01846630	0.20525542	1.98449438	-1.87370407
3701	37	-0.47189227	0.25846456	0.14155785	0.27909945	0.18432966	-0.21968262	-0.40505064	-0.13814928	-0.24261693	-0.19673245	0.43637873	-0.78706464	-1.02413596	-0.70147372	-2.71366693	0.72563002	0.20114484	-0.85988608	-0.03855420	-0.04072407	0.00797104	0.00706347	2.06116519	-1.65810976
3702	37.01000000	-0.43262379	0.27702970	0.15121688	0.27308285	0.18739343	-0.18155555	-0.35002152	-0.13839699	-0.25987794	-0.01409295	0.43141116	-0.76902218	-0.83792980	-0.65316740	-2.68216162	0.71056670	0.19564663	-0.90098542	-0.02503629	-0.02174900	-0.00254573	-0.03134128	2.02393144	-1.43478298
3703	37.02000000	-0.39559039	0.28456070	0.16837738	0.26879073	0.18339229	-0.14902331	-0.25972329	-0.12794823	-0.27385000	0.13765233	0.40811509	-0.78014786	-0.73511879	-0.57889701	-2.63006000	0.64364296	0.19779682	-0.93422776	-0.02124162	-0.00363295	-0.01186278	0.17182825	2.03694939	-1.26020213
3704	37.03000000	-0.35644096	0.29664042	0.17267838	0.27001950	0.16561057	-0.11374861	-0.15577042	-0.11242836	-0.28793037	0.30281731	0.37647262	-0.78350651	-0.63842009	-0.49706510	-2.56854043	0.48286075	0.20448239	-1.00373021	-0.03098796	-0.01898884	-0.01802293	0.24714164	2.06029728	-1.10378876
3705	37.04000000	-0.30802584	0.29685051	0.17207653	0.27400917	0.15426784	-0.08621702	-0.08790519	-0.11770969	-0.29443788	0.46666494	0.35814193	-0.77298657	-0.53699171	-0.46277221	-2.50867742	0.21851063	0.22460595	-1.06335421	-0.02477720	-0.01630980	-0.02439122	0.17663699	2.02626941	-0.96573753
3706	37.05000000	-0.25610533	0.29400880	0.17009947	0.27474060	0.14872105	-0.07231419	-0.02034173	-0.11844275	-0.29969675	0.58951673	0.35650074	-0.77002485	-0.43208420	-0.48523800	-2.45119361	-0.11767271	0.25339741	-1.05500569	-0.02331613	0.00629927	-0.01750967	0.22358246	1.99631385	-0.88795953
3707	37.06000000	-0.21195754	0.28620222	0.16159308	0.27062085	0.13907226	-0.07732417	0.01281055	-0.11307380	-0.31210886	0.67843003	0.36322344	-0.77160390	-0.32415213	-0.52307488	-2.39771745	-0.46200448	0.28646999	-1.01083781	-0.02748380	-0.00653828	-0.01126180	0.28270056	1.96895960	-0.85175200
